<svg xmlns="http://www.w3.org/2000/svg" xmlns:xlink="http://www.w3.org/1999/xlink" width="100" height="100" viewBox="0 0 100 100">
  <defs>
    <clipPath id="clip-complain">
      <rect width="100" height="100"/>
    </clipPath>
  </defs>
  <g id="complain" clip-path="url(#clip-complain)">
    <g id="Customer_disappointed" transform="translate(6.359 6.79)">
      <path id="Path_48" data-name="Path 48" d="M45.746,35.535a21.6,21.6,0,0,0-9.193-7.126,2.179,2.179,0,0,1-1.317-2h0a2.222,2.222,0,0,1,.69-1.629c.135-.128.264-.255.36-.356A13.544,13.544,0,0,0,23.91,1.8,13.238,13.238,0,0,0,13.224,12.175,13.547,13.547,0,0,0,16.96,24.75a2.3,2.3,0,0,1,.717,1.632v.011a2.18,2.18,0,0,1-1.317,2.022A22.3,22.3,0,0,0,4.373,40.293,28.368,28.368,0,0,0,2.009,51.975v2.9A4.726,4.726,0,0,0,6.734,59.6H31.914A27.947,27.947,0,0,1,45.746,35.535Z" transform="translate(0 0)"/>
      <path id="Path_49" data-name="Path 49" d="M67.812,32.97a24.4,24.4,0,1,0,0,34.507A24.4,24.4,0,0,0,67.812,32.97Zm-27.6,11.788V43.245a2.09,2.09,0,1,1,4.18,0v1.513a2.09,2.09,0,1,1-4.18,0ZM58.905,61.023a2.091,2.091,0,0,1-2.739-1.112,6.089,6.089,0,0,0-11.218,0,2.09,2.09,0,1,1-3.85-1.627,10.27,10.27,0,0,1,18.918,0,2.09,2.09,0,0,1-1.111,2.739ZM61.3,44.758a2.09,2.09,0,1,1-4.18,0V43.245a2.09,2.09,0,0,1,4.18,0Z" transform="translate(9.496 9.543)" fill="#ff094f"/>
    </g>
  </g>
</svg>
