<svg xmlns="http://www.w3.org/2000/svg" xmlns:xlink="http://www.w3.org/1999/xlink" width="100" height="100" viewBox="0 0 100 100">
  <defs>
    <clipPath id="clip-follow-up">
      <rect width="100" height="100"/>
    </clipPath>
  </defs>
  <g id="follow-up" clip-path="url(#clip-follow-up)">
    <g id="Order_confirmation" transform="translate(-50.969 -27.91)">
      <path id="Path_13" data-name="Path 13" d="M100.215,119.768l.44-3.967H70.417a2.159,2.159,0,0,1-2.159-2.159V40.913a2.159,2.159,0,0,1,2.159-2.159h45.575a2.159,2.159,0,0,1,2.159,2.159V75.119a12.043,12.043,0,0,1,3.29-1.973V34.968a7.058,7.058,0,0,0-7.058-7.058H72.027a7.058,7.058,0,0,0-7.058,7.058V119.7a7.058,7.058,0,0,0,7.058,7.058h30.111A9.808,9.808,0,0,1,100.215,119.768ZM98.143,122.4H88.266v-2.59h9.877Z" transform="translate(0 0)" fill="#c70039"/>
      <path id="Path_14" data-name="Path 14" d="M110.816,137.968a5.159,5.159,0,1,1-5.142-5.573V130.02a7.532,7.532,0,1,0,7.52,7.948Z" transform="translate(-26.013 -80.069)" fill="#581845"/>
      <path id="Path_15" data-name="Path 15" d="M116.437,141.328l-1.912,1.747,2.847,3.114a1.3,1.3,0,0,0,.948.421h.008a1.3,1.3,0,0,0,.945-.409l6.043-6.441-1.889-1.772-5.086,5.421Z" transform="translate(-38.859 -86.318)" fill="#ffc300"/>
      <path id="Path_16" data-name="Path 16" d="M110.816,233.051a5.159,5.159,0,1,1-5.142-5.573V225.1a7.532,7.532,0,1,0,7.52,7.948Z" transform="translate(-26.012 -154.628)" fill="#581845"/>
      <path id="Path_17" data-name="Path 17" d="M116.437,236.411l-1.912,1.747,2.847,3.114a1.3,1.3,0,0,0,.948.421h.008a1.3,1.3,0,0,0,.945-.409l6.043-6.441-1.889-1.772-5.086,5.421Z" transform="translate(-38.859 -160.877)" fill="#ffc300"/>
      <path id="Path_18" data-name="Path 18" d="M98.139,327.722a7.533,7.533,0,0,0,15.054.414h-2.379a5.159,5.159,0,1,1-5.142-5.573v-2.374A7.541,7.541,0,0,0,98.139,327.722Z" transform="translate(-26.01 -229.19)" fill="#581845"/>
      <path id="Path_19" data-name="Path 19" d="M116.437,331.5l-1.912,1.747,2.847,3.114a1.3,1.3,0,0,0,.948.421h.008a1.3,1.3,0,0,0,.945-.409l6.043-6.441-1.889-1.772-5.086,5.421Z" transform="translate(-38.859 -235.44)" fill="#ffc300"/>
      <path id="Path_21" data-name="Path 21" d="M0,0H15.689V2.59H0Z" transform="translate(92.563 53.588)" fill="#581845"/>
      <rect id="Rectangle_4" data-name="Rectangle 4" width="10.922" height="2.59" transform="translate(92.563 58.788)" fill="#ffc300"/>
      <rect id="Rectangle_5" data-name="Rectangle 5" width="10.922" height="2.59" transform="translate(92.563 73.683)" fill="#581845"/>
      <rect id="Rectangle_6" data-name="Rectangle 6" width="15.613" height="2.59" transform="translate(92.563 78.884)" fill="#ffc300"/>
      <path id="Path_20" data-name="Path 20" d="M286.155,290.6l-3.045-27.383a4.422,4.422,0,0,0-4.4-3.937h-6.051V255.1a9.576,9.576,0,0,0-9.4-9.564,9.7,9.7,0,0,0-9.731,9.733v4.007h-6.051a4.422,4.422,0,0,0-4.4,3.938l-3.057,27.489a7.206,7.206,0,0,0,7.161,8H278.9a7.3,7.3,0,0,0,7.257-8.108Zm-30.037-35.5a6.983,6.983,0,0,1,6.855-6.974,7.089,7.089,0,0,1,7.1,7.113v4.038h-13.95Zm26.291,39.446a4.717,4.717,0,0,1-3.511,1.569H247.181a4.616,4.616,0,0,1-4.587-5.126l3.057-27.489a1.835,1.835,0,0,1,1.826-1.634h6.051v5.137h2.59v-5.137h13.95v5.137h2.59v-5.137h6.051a1.835,1.835,0,0,1,1.826,1.634l3.046,27.383A4.717,4.717,0,0,1,282.409,294.548Z" transform="translate(-137.231 -170.652)" fill="#900c3f"/>
    </g>
  </g>
</svg>
