<svg xmlns="http://www.w3.org/2000/svg" xmlns:xlink="http://www.w3.org/1999/xlink" width="100" height="100" viewBox="0 0 100 100">
  <defs>
    <clipPath id="clip-inquiry">
      <rect width="100" height="100"/>
    </clipPath>
  </defs>
  <g id="inquiry" clip-path="url(#clip-inquiry)">
    <g id="Layer_3" transform="translate(12.921 12.921)">
      <g id="Group_8" data-name="Group 8">
        <path id="Path_50" data-name="Path 50" d="M24.768,30.516a4.433,4.433,0,0,0-3.176,1.041A4.07,4.07,0,0,0,20.5,34.638a4.041,4.041,0,0,0,1.117,3.045,4.345,4.345,0,0,0,3.152,1.077,4.221,4.221,0,0,0,3.1-1.1,4.067,4.067,0,0,0,1.117-3.02,4.059,4.059,0,0,0-1.1-3.057A4.3,4.3,0,0,0,24.768,30.516Z" transform="translate(11.171 16.63)" fill="#0e6ae0"/>
        <path id="Path_51" data-name="Path 51" d="M36.177,14.55a12.2,12.2,0,0,0-7.943-2.4A23.106,23.106,0,0,0,16.763,15.18l2.643,5.312A18.674,18.674,0,0,1,27.7,18.114a5.551,5.551,0,0,1,3.251.825,2.755,2.755,0,0,1,1.165,2.4,4.3,4.3,0,0,1-.811,2.546,15.191,15.191,0,0,1-3.359,2.959,12.989,12.989,0,0,0-3.637,3.662,7.939,7.939,0,0,0-.995,4.049v1.8h6.425V34.9a4.086,4.086,0,0,1,.616-2.353A14.266,14.266,0,0,1,33.3,29.925a17.218,17.218,0,0,0,4.607-4.366,8.537,8.537,0,0,0,1.211-4.607A7.818,7.818,0,0,0,36.177,14.55Z" transform="translate(9.135 6.621)" fill="#0e6ae0"/>
        <path id="Path_52" data-name="Path 52" d="M37.079,0A37.079,37.079,0,1,0,74.158,37.079,37.078,37.078,0,0,0,37.079,0Zm0,67.978a30.9,30.9,0,1,1,30.9-30.9A30.9,30.9,0,0,1,37.079,67.978Z" fill="#ff094f"/>
      </g>
    </g>
  </g>
</svg>
