<svg xmlns="http://www.w3.org/2000/svg" xmlns:xlink="http://www.w3.org/1999/xlink" width="100" height="100" viewBox="0 0 100 100">
  <defs>
    <clipPath id="clip-jobs">
      <rect width="100" height="100"/>
    </clipPath>
  </defs>
  <g id="jobs" clip-path="url(#clip-jobs)">
    <g id="_897229_craiglist_find_job_jobs_vacancy_icon" data-name="897229_craiglist_find job_jobs_vacancy_icon" transform="translate(3.448 4.448)">
      <path id="Path_39" data-name="Path 39" d="M77.008,74.389v-34a4.048,4.048,0,0,1,8.1,0v35.3c0,4.048-4.372,8.42-8.258,8.42h-60.4C12.4,84.1,9,79.732,9,75.684V14.963A6.956,6.956,0,0,1,15.639,8H60.492c4.048,0,8.42,2.915,8.42,6.963V75.2S68.588,84.1,76.846,84.1" fill="#e5e5e5"/>
      <g id="Group_7" data-name="Group 7" transform="translate(68.91 36.337)">
        <path id="Path_40" data-name="Path 40" d="M54.1,29.548A4.009,4.009,0,0,1,58.145,25.5H46V64.362s-.324,8.906,7.934,8.906l.162-9.715Z" transform="translate(-45.999 -25.5)" fill="#b7b7b7"/>
        <path id="Path_41" data-name="Path 41" d="M53.5,55" transform="translate(-41.354 -7.232)" fill="#e5e5e5"/>
      </g>
      <path id="Path_42" data-name="Path 42" d="M29,14.707v13.44s7.125.972,7.125-2.591c0-4.534-4.534-3.4-5.667-3.886,1.133-.324,4.534-.324,4.534-3.4C34.991,14.221,29,14.707,29,14.707Z" transform="translate(12.385 4.142)" fill="none" stroke="#0e6ae0" stroke-linecap="round" stroke-linejoin="round" stroke-miterlimit="10" stroke-width="2"/>
      <path id="Path_43" data-name="Path 43" d="M29.1,24.092a4.048,4.048,0,0,1-8.1,0V18.748a4.048,4.048,0,1,1,8.1,0Z" transform="translate(7.431 4.149)" fill="none" stroke="#0786f5" stroke-linecap="round" stroke-linejoin="round" stroke-miterlimit="10" stroke-width="2"/>
      <path id="Path_44" data-name="Path 44" d="M13.6,25.525A3.812,3.812,0,0,0,17,28.116a3.749,3.749,0,0,0,3.724-4.048V15H17.486" transform="translate(2.848 4.335)" fill="none" stroke="#0593ff" stroke-linecap="round" stroke-linejoin="round" stroke-miterlimit="10" stroke-width="2"/>
      <path id="Path_45" data-name="Path 45" d="M77.008,74.389v-34a4.048,4.048,0,0,1,8.1,0v35.3c0,4.048-4.372,8.42-8.258,8.42h-60.4C12.4,84.1,9,79.732,9,75.684V14.963A6.956,6.956,0,0,1,15.639,8H60.492c4.048,0,8.42,2.915,8.42,6.963V75.2S68.588,84.1,76.846,84.1" fill="none" stroke="#0e6ae0" stroke-linecap="round" stroke-linejoin="round" stroke-miterlimit="10" stroke-width="2"/>
      <path id="Path_46" data-name="Path 46" d="M43.772,18.748A3.976,3.976,0,0,0,39.886,14.7,3.876,3.876,0,0,0,36,18.748c0,1.457,7.934,3.238,7.934,5.343a3.976,3.976,0,0,1-3.886,4.048,3.876,3.876,0,0,1-3.886-4.048" transform="translate(16.719 4.149)" fill="none" stroke="#0e6ae0" stroke-linecap="round" stroke-linejoin="round" stroke-miterlimit="10" stroke-width="2"/>
      <line id="Line_2" data-name="Line 2" x2="10" transform="translate(18.552 40.552)" fill="none" stroke="#2c3e50" stroke-linecap="round" stroke-linejoin="round" stroke-miterlimit="10" stroke-width="2"/>
      <line id="Line_3" data-name="Line 3" x2="16" transform="translate(18.552 45.552)" fill="none" stroke="#2c3e50" stroke-linecap="round" stroke-linejoin="round" stroke-miterlimit="10" stroke-width="2"/>
      <line id="Line_4" data-name="Line 4" x2="15" transform="translate(18.552 50.552)" fill="none" stroke="#2c3e50" stroke-linecap="round" stroke-linejoin="round" stroke-miterlimit="10" stroke-width="2"/>
      <line id="Line_5" data-name="Line 5" x2="10" transform="translate(42.552 64.552)" fill="none" stroke="#2c3e50" stroke-linecap="round" stroke-linejoin="round" stroke-miterlimit="10" stroke-width="2"/>
      <line id="Line_6" data-name="Line 6" x2="17" transform="translate(42.552 69.552)" fill="none" stroke="#2c3e50" stroke-linecap="round" stroke-linejoin="round" stroke-miterlimit="10" stroke-width="2"/>
      <line id="Line_7" data-name="Line 7" x2="15" transform="translate(42.552 74.552)" fill="none" stroke="#0e6ae0" stroke-linecap="round" stroke-linejoin="round" stroke-miterlimit="10" stroke-width="2"/>
      <line id="Line_8" data-name="Line 8" x2="12" transform="translate(42.552 40.552)" fill="none" stroke="#2c3e50" stroke-linecap="round" stroke-linejoin="round" stroke-miterlimit="10" stroke-width="2"/>
      <path id="Path_47" data-name="Path 47" d="M0,0H17" transform="translate(42.552 45.552)" fill="none" stroke="#0e6ae0" stroke-linecap="round" stroke-width="2"/>
      <line id="Line_10" data-name="Line 10" x2="17" transform="translate(42.552 54.552)" fill="none" stroke="#2c3e50" stroke-linecap="round" stroke-linejoin="round" stroke-miterlimit="10" stroke-width="2"/>
      <line id="Line_11" data-name="Line 11" x2="15" transform="translate(42.552 50.552)" fill="none" stroke="#2c3e50" stroke-linecap="round" stroke-linejoin="round" stroke-miterlimit="10" stroke-width="2"/>
      <line id="Line_12" data-name="Line 12" x2="11" transform="translate(18.552 59.552)" fill="none" stroke="#2c3e50" stroke-linecap="round" stroke-linejoin="round" stroke-miterlimit="10" stroke-width="2"/>
      <line id="Line_13" data-name="Line 13" x2="16" transform="translate(18.552 64.552)" fill="none" stroke="#c70039" stroke-linecap="round" stroke-linejoin="round" stroke-miterlimit="10" stroke-width="2"/>
      <line id="Line_14" data-name="Line 14" x2="16" transform="translate(18.552 74.552)" fill="none" stroke="#2c3e50" stroke-linecap="round" stroke-linejoin="round" stroke-miterlimit="10" stroke-width="2"/>
      <line id="Line_15" data-name="Line 15" x2="15" transform="translate(18.552 69.552)" fill="none" stroke="#2c3e50" stroke-linecap="round" stroke-linejoin="round" stroke-miterlimit="10" stroke-width="2"/>
    </g>
  </g>
</svg>
