<svg xmlns="http://www.w3.org/2000/svg" xmlns:xlink="http://www.w3.org/1999/xlink" width="100" height="100" viewBox="0 0 100 100">
  <defs>
    <clipPath id="clip-key">
      <rect width="100" height="100"/>
    </clipPath>
  </defs>
  <g id="key" clip-path="url(#clip-key)">
    <g id="key_open" transform="translate(10.229 11.309)">
      <path id="Path_29" data-name="Path 29" d="M20.761,76.307a1.129,1.129,0,0,1-.132-.008L5.707,74.809a.386.386,0,0,1-.054-.005L2.327,74.47a.827.827,0,0,1-.14-.021h0a1.319,1.319,0,0,1-.691-.4v0l0,0h0l0,0h0l0,0v0h0a1.3,1.3,0,0,1-.212-.323h0v-.005h0a1.3,1.3,0,0,1-.109-.619L2.144,58.1a1.31,1.31,0,0,1,.378-.833L29.6,30.361a24.508,24.508,0,0,1,4.444-19.526A1.294,1.294,0,0,1,36.11,12.39a21.922,21.922,0,0,0-3.835,18.1,1.3,1.3,0,0,1-.349,1.206L4.693,58.759,3.831,72.022l1.473.148L34.48,42.993a1.3,1.3,0,0,0,0-1.83,1.324,1.324,0,0,0-1.83,0L9.18,64.631a1.294,1.294,0,0,1-1.83-1.83l23.47-23.467a3.889,3.889,0,0,1,5.489,0,3.886,3.886,0,0,1,0,5.492L8.632,72.5l10.983,1.1.774-6.962a1.294,1.294,0,0,1,.373-.771l6.405-6.408a1.292,1.292,0,0,1,.916-.378h4.953L45.37,46.745a1.288,1.288,0,0,1,1.328-.311A21.989,21.989,0,1,0,40.51,8a1.294,1.294,0,0,1-1.555-2.068A24.589,24.589,0,0,1,71.092,42.993a24.412,24.412,0,0,1-24.443,6.141L34.493,61.29a1.292,1.292,0,0,1-.916.378H28.623l-5.7,5.706-.864,7.785A1.313,1.313,0,0,1,20.761,76.307ZM61.017,27.336a9.045,9.045,0,0,1-6.405-2.645h0a9.075,9.075,0,1,1,6.405,2.645Zm-4.575-4.475a6.471,6.471,0,1,0,0-9.151,6.48,6.48,0,0,0,0,9.151Z" transform="translate(0 0.074)" fill="#e54219"/>
      <path id="Path_30" data-name="Path 30" d="M3.744,52.015a1.293,1.293,0,0,1-.916-2.208L32.439,20.2a1.294,1.294,0,1,0-1.83-1.83L7.14,41.834A1.294,1.294,0,1,1,5.31,40L28.78,16.537a3.889,3.889,0,0,1,5.489,0,3.886,3.886,0,0,1,0,5.492L4.661,51.634A1.292,1.292,0,0,1,3.744,52.015Z" transform="translate(2.04 22.871)" fill="#e54219"/>
      <g id="Group_6" data-name="Group 6" transform="translate(22.736 1)">
        <g id="Group_2" data-name="Group 2" transform="translate(11.646)">
          <circle id="Ellipse_1" data-name="Ellipse 1" cx="1.294" cy="1.294" r="1.294" fill="#e54219"/>
        </g>
        <g id="Group_3" data-name="Group 3" transform="translate(53.053 41.407)">
          <circle id="Ellipse_2" data-name="Ellipse 2" cx="1.294" cy="1.294" r="1.294" fill="#e54219"/>
        </g>
        <g id="Group_4" data-name="Group 4" transform="translate(25.553 45.589)">
          <path id="Path_31" data-name="Path 31" d="M24.876,28.667a31.457,31.457,0,0,1-4.389-.308,1.294,1.294,0,1,1,.362-2.562,28.707,28.707,0,0,0,22.88-6.855,1.294,1.294,0,0,1,1.713,1.941A31.02,31.02,0,0,1,24.876,28.667Z" transform="translate(-19.374 -18.616)" fill="#e54219"/>
        </g>
        <g id="Group_5" data-name="Group 5" transform="translate(0 3.188)">
          <path id="Path_32" data-name="Path 32" d="M11.086,29.134a1.294,1.294,0,0,1-1.278-1.113A31.466,31.466,0,0,1,9.5,23.63a30.951,30.951,0,0,1,8.16-20.98,1.293,1.293,0,0,1,1.9,1.749A28.376,28.376,0,0,0,12.088,23.63a29.068,29.068,0,0,0,.282,4.029,1.293,1.293,0,0,1-1.1,1.462A1.462,1.462,0,0,1,11.086,29.134Z" transform="translate(-9.5 -2.232)" fill="#e54219"/>
        </g>
      </g>
    </g>
  </g>
</svg>
