<svg xmlns="http://www.w3.org/2000/svg" xmlns:xlink="http://www.w3.org/1999/xlink" width="100" height="100" viewBox="0 0 100 100">
  <defs>
    <clipPath id="clip-location">
      <rect width="100" height="100"/>
    </clipPath>
  </defs>
  <g id="location" clip-path="url(#clip-location)">
    <g id="_3586361_location_map_navigation_pointer_icon" data-name="3586361_location_map_navigation_pointer_icon" transform="translate(-0.471 0.452)">
      <path id="Path_22" data-name="Path 22" d="M58.23,69.992,73.223,45.884a1.365,1.365,0,0,0,.122-.245,26.791,26.791,0,1,0-45.665.006,1.548,1.548,0,0,0,.107.216L42.242,70.052c-11.221,1.586-18.6,6.2-18.6,11.8,0,6.935,11.785,12.366,26.829,12.366S77.3,88.783,77.3,81.849C77.3,76.226,69.578,71.509,58.23,69.992Zm-27.857-25.7a23.79,23.79,0,1,1,40.276,0,1.444,1.444,0,0,0-.124.249L54.685,70.01c-.238.365-.285.448-.576.926l-4,6.432-19.6-32.8A1.508,1.508,0,0,0,30.373,44.294Zm20.1,46.921c-14.043,0-23.829-4.937-23.829-9.366,0-4.02,7.37-7.808,17.283-8.981l4.87,8.151a1.5,1.5,0,0,0,1.274.73h.013a1.5,1.5,0,0,0,1.274-.708l5.12-8.232C66.548,73.9,74.3,77.784,74.3,81.849,74.3,86.279,64.515,91.215,50.472,91.215Z" fill="#c70039"/>
      <path id="Path_23" data-name="Path 23" d="M60.213,31.67a9.741,9.741,0,1,0-9.741,9.741A9.752,9.752,0,0,0,60.213,31.67Zm-16.482,0a6.741,6.741,0,1,1,6.741,6.741A6.749,6.749,0,0,1,43.731,31.67Z" fill="#ff094f"/>
    </g>
  </g>
</svg>
