<svg xmlns="http://www.w3.org/2000/svg" xmlns:xlink="http://www.w3.org/1999/xlink" width="100" height="100" viewBox="0 0 100 100">
  <defs>
    <clipPath id="clip-password">
      <rect width="100" height="100"/>
    </clipPath>
  </defs>
  <g id="password" clip-path="url(#clip-password)">
    <g id="Password-2" data-name="Password" transform="translate(4.603 15.102)">
      <path id="Path_33" data-name="Path 33" d="M41.7,31.8H23.1A3.1,3.1,0,0,1,20,28.7V19.4a12.4,12.4,0,1,1,24.8,0v9.3A3.1,3.1,0,0,1,41.7,31.8ZM26.2,25.6H38.6V19.4a6.2,6.2,0,1,0-12.4,0Z" transform="translate(37.796)" fill="#0e6ae0"/>
      <path id="Path_34" data-name="Path 34" d="M60.9,37.7a3.1,3.1,0,0,1-3.1-3.1V19.1A3.1,3.1,0,0,0,54.7,16H11.3A9.3,9.3,0,0,0,2,25.3v9.3a9.3,9.3,0,0,0,9.3,9.3H60.9a3.1,3.1,0,1,0,0-6.2Z" transform="translate(0 18.898)" fill="#d8e1ef"/>
      <path id="Path_35" data-name="Path 35" d="M13.824,19.468a1.488,1.488,0,0,0-2.17,0L9.639,21.452,7.624,19.468a1.534,1.534,0,1,0-2.17,2.17l1.984,2.015L5.454,25.668a1.534,1.534,0,0,0,2.17,2.17l2.015-1.984,2.015,1.984a1.534,1.534,0,0,0,2.17-2.17L11.84,23.653l1.984-2.015a1.488,1.488,0,0,0,0-2.17Z" transform="translate(6.31 25.194)" fill="#0593ff"/>
      <path id="Path_36" data-name="Path 36" d="M17.824,19.468a1.488,1.488,0,0,0-2.17,0l-2.015,1.984-2.015-1.984a1.534,1.534,0,1,0-2.17,2.17l1.984,2.015L9.454,25.668a1.534,1.534,0,0,0,2.17,2.17l2.015-1.984,2.015,1.984a1.534,1.534,0,0,0,2.17-2.17L15.84,23.653l1.984-2.015a1.488,1.488,0,0,0,0-2.17Z" transform="translate(14.709 25.194)" fill="#0593ff"/>
      <path id="Path_37" data-name="Path 37" d="M19.84,23.639l1.984-2.015a1.534,1.534,0,1,0-2.17-2.17l-2.015,1.984-2.015-1.984a1.534,1.534,0,1,0-2.17,2.17l1.984,2.015-1.984,2.015a1.534,1.534,0,1,0,2.17,2.17l2.015-1.984,2.015,1.984a1.534,1.534,0,0,0,2.17-2.17Z" transform="translate(23.108 25.208)" fill="#0593ff"/>
      <rect id="Rectangle_8" data-name="Rectangle 8" width="37" height="37" rx="3" transform="translate(51.397 25.898)" fill="#0593ff"/>
      <path id="Path_38" data-name="Path 38" d="M34.4,22.225a6.2,6.2,0,1,0-9.3,5.332v3.968a3.1,3.1,0,1,0,6.2,0V27.557A6.2,6.2,0,0,0,34.4,22.225Z" transform="translate(41.995 18.872)" fill="#0e6ae0"/>
    </g>
  </g>
</svg>
