<svg xmlns="http://www.w3.org/2000/svg" xmlns:xlink="http://www.w3.org/1999/xlink" width="100" height="100" viewBox="0 0 100 100">
  <defs>
    <clipPath id="clip-iPhone_12_12_Pro_1">
      <rect width="100" height="100"/>
    </clipPath>
  </defs>
  <g id="iPhone_12_12_Pro_1" data-name="iPhone 12, 12 Pro – 1" clip-path="url(#clip-iPhone_12_12_Pro_1)">
    <g id="_5340270_cast_feed_rss_streaming_icon" data-name="5340270_cast_feed_rss_streaming_icon" transform="translate(3.114 12.617)">
      <path id="Path_1" data-name="Path 1" d="M6.376,21a3.376,3.376,0,1,0,0,6.752,3.376,3.376,0,0,1,3.376,3.376,3.376,3.376,0,0,0,6.752,0A10.128,10.128,0,0,0,6.376,21Z" transform="translate(0 33.262)" fill="#ff4f33"/>
      <path id="Path_2" data-name="Path 2" d="M87.8,9.971A10.128,10.128,0,0,0,80.645,7H13.128A10.128,10.128,0,0,0,3,17.128a3.376,3.376,0,0,0,6.752,0,3.376,3.376,0,0,1,3.376-3.376H80.645a3.376,3.376,0,0,1,3.376,3.376v40.51a3.376,3.376,0,0,1-3.376,3.376H53.638a3.376,3.376,0,1,0,0,6.752H80.645A10.128,10.128,0,0,0,90.773,57.638V17.128A10.128,10.128,0,0,0,87.8,9.971Z" transform="translate(0)" fill="#ff6700"/>
      <path id="Path_3" data-name="Path 3" d="M6.376,17a3.376,3.376,0,1,0,0,6.752A16.879,16.879,0,0,1,23.255,40.631a3.376,3.376,0,0,0,6.752,0A23.631,23.631,0,0,0,6.376,17Z" transform="translate(0 23.759)" fill="#ff6133"/>
      <path id="Path_4" data-name="Path 4" d="M6.376,13a3.376,3.376,0,1,0,0,6.752A30.383,30.383,0,0,1,36.759,50.135a3.376,3.376,0,0,0,6.752,0A37.135,37.135,0,0,0,6.376,13Z" transform="translate(0 14.255)" fill="#ff6700"/>
    </g>
  </g>
</svg>
