<svg xmlns="http://www.w3.org/2000/svg" xmlns:xlink="http://www.w3.org/1999/xlink" width="100" height="100" viewBox="0 0 100 100">
  <defs>
    <clipPath id="clip-team">
      <rect width="100" height="100"/>
    </clipPath>
  </defs>
  <g id="team" clip-path="url(#clip-team)">
    <g id="_OUTLINE" data-name="/ OUTLINE" transform="translate(202.364 -227.896)">
      <path id="Path_28" data-name="Path 28" d="M105.043,37.222l-2.758-.788V34.816a5.338,5.338,0,0,1,.068-.832l2.23-1.338a10.092,10.092,0,0,0,4.875-8.61A8.046,8.046,0,0,0,101.42,16H94.543a8.046,8.046,0,0,0-8.037,8.037,10.092,10.092,0,0,0,4.875,8.61l2.23,1.338a5.336,5.336,0,0,1,.067.832v1.618l-2.758.788A10.036,10.036,0,0,0,85.5,41.069a7.183,7.183,0,0,0-4.2-3.252l-4.839-1.382V35.241a3.439,3.439,0,0,1,1.014-2.449,6.29,6.29,0,0,0,1.854-4.477V23.172a7.172,7.172,0,1,0-14.344,0v5.143a6.29,6.29,0,0,0,1.854,4.477,3.439,3.439,0,0,1,1.014,2.448v1.193l-4.839,1.383a7.165,7.165,0,0,0-3.767,2.607,7.165,7.165,0,0,0-3.767-2.606l-4.839-1.383V35.241a3.439,3.439,0,0,1,1.014-2.449,6.29,6.29,0,0,0,1.854-4.477V23.172a7.172,7.172,0,1,0-14.344,0v5.143a6.29,6.29,0,0,0,1.854,4.477,3.439,3.439,0,0,1,1.014,2.448v1.193L37.2,37.816a7.2,7.2,0,0,0-5.2,6.9V61.9a4.3,4.3,0,0,0,4.856,4.266L36.3,68.93V79.113a4.31,4.31,0,0,0,2.869,4.056V93.457H37.738a4.3,4.3,0,1,0,0,8.606h5.738a4.285,4.285,0,0,0,2.869-1.1,4.285,4.285,0,0,0,2.869,1.1H54.95a4.3,4.3,0,1,0,0-8.606H53.516V83.169a4.31,4.31,0,0,0,2.869-4.056V68.93l-.553-2.763A4.277,4.277,0,0,0,59.253,65.1a4.293,4.293,0,0,0,4.3.852v27.5a4.3,4.3,0,1,0,0,8.606h5.738a4.285,4.285,0,0,0,2.869-1.1,4.285,4.285,0,0,0,2.869,1.1h5.738a4.3,4.3,0,1,0,0-8.606v-27.5a4.293,4.293,0,0,0,4.3-.852,4.284,4.284,0,0,0,3.635,1.03l-1.675,10.89a4.3,4.3,0,0,0,3.778,4.931v11.5H89.375a4.3,4.3,0,0,0,0,8.606h5.738a4.285,4.285,0,0,0,2.869-1.1,4.285,4.285,0,0,0,2.869,1.1h5.738a4.3,4.3,0,1,0,0-8.606h-1.434v-11.5a4.3,4.3,0,0,0,3.778-4.931l-1.675-10.89a4.3,4.3,0,0,0,5.069-4.233V46.876a10.083,10.083,0,0,0-7.282-9.654Zm-63-14.05a4.3,4.3,0,0,1,8.606,0v5.143a3.439,3.439,0,0,1-1.014,2.449,6.29,6.29,0,0,0-1.854,4.477v1.3a5.021,5.021,0,0,1-2.869,0v-1.3a6.29,6.29,0,0,0-1.854-4.477,3.439,3.439,0,0,1-1.014-2.449Zm-4.3,38.586-.159.8a1.433,1.433,0,0,1-2.71-.654V54.728h2.869Zm7.172,36a1.436,1.436,0,0,1-1.434,1.434H37.738a1.434,1.434,0,0,1,0-2.869h7.172Zm0-4.3H42.041V90.588h2.869Zm0-5.738H42.041v-4.3h2.869ZM54.95,96.325a1.434,1.434,0,0,1,0,2.869H49.213a1.436,1.436,0,0,1-1.434-1.434V96.325Zm-4.3-5.738v2.869H47.778V90.588Zm-2.869-2.869v-4.3h2.869v4.3Zm5.738-8.606a1.436,1.436,0,0,1-1.434,1.434h-4.3V71.941H44.909v8.606h-4.3a1.436,1.436,0,0,1-1.434-1.434v-9.9l1.161-5.807.026-.072H52.328l.026.072,1.161,5.807Zm4.3-17.213a1.433,1.433,0,0,1-2.71.654l-.159-.8v-7.03h2.869Zm0-10.041H54.95v-4.3H52.081V60.466H40.606V47.556H37.738v4.3H34.869V44.712a4.321,4.321,0,0,1,3.121-4.138l5.378-1.537a7.862,7.862,0,0,0,5.952,0L54.7,40.575a4.321,4.321,0,0,1,3.121,4.138ZM67.86,23.172a4.3,4.3,0,1,1,8.606,0v5.143a3.439,3.439,0,0,1-1.014,2.449A6.29,6.29,0,0,0,73.6,35.241v1.84l-.241.361a1.435,1.435,0,0,1-2.387,0l-.241-.361v-1.84a6.29,6.29,0,0,0-1.854-4.477,3.439,3.439,0,0,1-1.014-2.448ZM62.122,63.335A1.436,1.436,0,0,1,60.688,61.9V60.466h2.869V61.9a1.436,1.436,0,0,1-1.434,1.434ZM70.728,97.76a1.436,1.436,0,0,1-1.434,1.434H63.556a1.434,1.434,0,1,1,0-2.869h7.172Zm0-25.819V93.457h-4.3V63.335H77.9V93.457H73.6V71.941ZM82.2,97.76a1.436,1.436,0,0,1-1.434,1.434H75.031A1.436,1.436,0,0,1,73.6,97.76V96.325h7.172A1.436,1.436,0,0,1,82.2,97.76ZM83.638,61.9a1.434,1.434,0,0,1-2.869,0V60.466h2.869Zm0-15.024V57.6H80.769V47.556H77.9V60.466H66.425V47.556H63.556V57.6H60.688V44.712a4.321,4.321,0,0,1,3.121-4.138l4.878-1.394A4.291,4.291,0,0,0,70.728,40.7V53.294H73.6V40.7a4.291,4.291,0,0,0,2.041-1.522l4.878,1.394a4.321,4.321,0,0,1,3.121,4.138Zm8.606-18.844v.708a8.178,8.178,0,0,0,.075,1.085,7.21,7.21,0,0,1-2.944-5.788,5.174,5.174,0,0,1,5.168-5.168h6.877a5.174,5.174,0,0,1,5.168,5.168,7.21,7.21,0,0,1-2.944,5.788,8.179,8.179,0,0,0,.075-1.085V25.124a4.3,4.3,0,0,0-5.011-4.245l-.472.078A7.149,7.149,0,0,0,92.244,28.032Zm3.435,3.1a5.384,5.384,0,0,1-.566-2.4v-.708a4.29,4.29,0,0,1,3.6-4.245l.472-.079a1.434,1.434,0,0,1,1.67,1.415V28.74a5.384,5.384,0,0,1-.566,2.4,8.27,8.27,0,0,0-.869,3.68v2.11a10.112,10.112,0,0,0-1.434,1.844,10.112,10.112,0,0,0-1.434-1.844v-2.11a8.27,8.27,0,0,0-.869-3.68Zm-3.97,8.844,2.978-.851a7.119,7.119,0,0,1,1.861,4.82v.738h2.869v-.738a7.119,7.119,0,0,1,1.861-4.82l2.978.851a7.112,7.112,0,0,1,2.446,1.253,10.017,10.017,0,0,0-2.982,7.141V60.466H92.244V48.991h-.009a10.012,10.012,0,0,0-3.487-7.312,7.131,7.131,0,0,1,2.961-1.7Zm-2.333,21.81-.1.619a1.433,1.433,0,0,1-2.773-.51V46.876a7.118,7.118,0,0,1,.586-2.826,7.153,7.153,0,0,1,2.283,5.244ZM96.547,97.76a1.436,1.436,0,0,1-1.434,1.434H89.375a1.434,1.434,0,0,1,0-2.869h7.172Zm0-4.3H93.678V81.982h2.869Zm10.041,2.869a1.434,1.434,0,1,1,0,2.869H100.85a1.436,1.436,0,0,1-1.434-1.434V96.325Zm-7.172-2.869V81.982h2.869V93.457Zm6.351-14.844a1.414,1.414,0,0,1-1.088.5H91.285a1.434,1.434,0,0,1-1.418-1.652L92.04,63.335h11.883L106.1,77.461a1.413,1.413,0,0,1-.329,1.152Zm3.69-16.712a1.433,1.433,0,0,1-2.773.51l-.1-.619V48.374a7.153,7.153,0,0,1,1.978-4.943,7.135,7.135,0,0,1,.89,3.445Z" transform="translate(-224.527 218.864)" fill="#c70039"/>
    </g>
  </g>
</svg>
