<svg xmlns="http://www.w3.org/2000/svg" width="69.276" height="89.557" viewBox="0 0 69.276 89.557">
  <g id="_6588974_construction_constructor_hat_helmet_protection_icon" data-name="6588974_construction_constructor_hat_helmet_protection_icon" transform="translate(-5 -1.774)">
    <line id="Line_1" data-name="Line 1" x2="53.742" transform="translate(12.718 33.23)" fill="none" stroke="#ff6700" stroke-linecap="round" stroke-linejoin="round" stroke-miterlimit="10" stroke-width="2"/>
    <path id="Path_24" data-name="Path 24" d="M16.331,20.13,12.3,6.023h0a27.057,27.057,0,0,1,24.856,0h0L33.125,20.13" transform="translate(14.861 0)" fill="none" stroke="#ff6700" stroke-linecap="round" stroke-linejoin="round" stroke-miterlimit="10" stroke-width="2"/>
    <path id="Path_25" data-name="Path 25" d="M19.5,4.9A22.991,22.991,0,0,1,30.584,24.717v4.031" transform="translate(31.845 4.482)" fill="none" stroke="#ff6700" stroke-linecap="round" stroke-linejoin="round" stroke-miterlimit="10" stroke-width="2"/>
    <path id="Path_26" data-name="Path 26" d="M9.2,28.748V24.717A22.991,22.991,0,0,1,20.284,4.9" transform="translate(7.548 4.482)" fill="none" stroke="#ff6700" stroke-linecap="round" stroke-linejoin="round" stroke-miterlimit="10" stroke-width="2"/>
    <path id="Path_27" data-name="Path 27" d="M58.4,50.291c-6.046-1.679-10.412-7.725-10.412-14.779,4.367-2.687,7.054-7.725,8.061-13.435A19.5,19.5,0,0,1,38.917,12H22.794v6.718c0,7.054,3.023,13.435,8.4,16.794h0c0,7.054-4.367,13.1-10.748,14.779C13.054,52.306,7.679,59.024,6,67.085A1.881,1.881,0,0,0,7.679,69.1H71.834a1.48,1.48,0,0,0,1.344-2.015C71.5,58.688,65.788,52.306,58.4,50.291Z" transform="translate(0 21.23)" fill="none" stroke="#ff6700" stroke-linejoin="round" stroke-miterlimit="10" stroke-width="2"/>
  </g>
</svg>
